<svg width="602" height="134" fill="none" xmlns="http://www.w3.org/2000/svg">
  <path
    d="M345.702 52.452V28.403H318.42V1.967h-30.652v29.666h27.282v20.82h-97.084v29.666h97.084v20.819h-27.282v29.666h30.652v-26.436h27.282v-24.05h27.282V52.453h-27.282zM167.46 66.927L99.477 0 78.74 20.414l33.157 32.642H0v28.887h110.953l-31.886 31.39 20.773 20.415 67.62-66.57-.145-.143.145-.108zM537.104 52.912l-14.285 13.864 14.285 13.865 14.285-13.865-14.285-13.864z"
    fill="#FABD05"/>
  <path
    d="M537.14 73.506l-12.724 12.35 12.724 12.348 12.723-12.349-12.723-12.349zM536.825 119.42l-6.026 5.849 6.026 5.849 6.027-5.849-6.027-5.849zM557.272 99.654l-6.026 5.849 6.026 5.849 6.027-5.849-6.027-5.849zM577.261 80.54l-6.027 5.848 6.027 5.85 6.026-5.85-6.026-5.849zM557.587 54.416l-12.724 12.35 12.724 12.348 12.723-12.349-12.723-12.349zM595.974 60.906l-6.027 5.85 6.027 5.848L602 66.755l-6.026-5.849zM537.133 34.756l-12.724 12.349 12.724 12.349 12.723-12.35-12.723-12.348zM516.889 54.41l-12.723 12.35 12.723 12.348 12.724-12.349-12.724-12.349zM476.166 54.428l-12.724 12.35 12.724 12.348 12.723-12.349-12.723-12.349z"
    fill="#FABD05"/>
  <path
    d="M496.653 54.417L483.93 66.766l12.723 12.35 12.724-12.35-12.724-12.35zM456.145 54.427l-12.723 12.35 12.723 12.348 12.723-12.349-12.723-12.349z"
    fill="#FABD05"/>
  <path d="M436.216 54.419L423.49 66.764l12.726 12.346 12.727-12.346-12.727-12.345z" fill="#FABD05"/>
  <path
    d="M435.977 37.736l-9.377 9.096 9.377 9.096 9.377-9.096-9.377-9.096zM435.977 77.429l-9.377 9.096 9.377 9.096 9.377-9.096-9.377-9.096zM456.195 37.736l-9.377 9.096 9.377 9.096 9.376-9.096-9.376-9.096zM456.195 77.429l-9.377 9.096 9.377 9.096 9.376-9.096-9.376-9.096zM476.412 37.736l-9.376 9.096 9.376 9.096 9.377-9.096-9.377-9.096zM476.412 77.429l-9.376 9.096 9.376 9.096 9.377-9.096-9.377-9.096zM496.63 37.736l-9.377 9.096 9.377 9.096 9.377-9.096-9.377-9.096zM496.63 77.429l-9.377 9.096 9.377 9.096 9.377-9.096-9.377-9.096zM516.848 37.736l-9.377 9.096 9.377 9.096 9.376-9.096-9.376-9.096zM516.848 77.429l-9.377 9.096 9.377 9.096 9.376-9.096-9.376-9.096zM557.283 37.736l-9.377 9.096 9.377 9.096 9.377-9.096-9.377-9.096zM537.065 19.074l-9.376 9.096 9.376 9.096 9.377-9.096-9.377-9.096zM537.065 96.091l-9.376 9.096 9.376 9.096 9.377-9.096-9.377-9.096zM557.283 77.429l-9.377 9.096 9.377 9.096 9.377-9.096-9.377-9.096zM577.501 57.954l-9.377 9.096 9.377 9.096 9.376-9.096-9.376-9.096zM536.825 1.967l-6.026 5.849 6.026 5.849 6.027-5.85-6.027-5.848zM557.272 22.233l-6.026 5.85 6.026 5.849 6.027-5.85-6.027-5.849zM577.261 40.847l-6.027 5.849 6.027 5.85 6.026-5.85-6.026-5.849z"
    fill="#FABD05"/>
</svg>
