<svg width="350.00000000000006" height="120.05311952221756" viewBox="0 0 350.00000000000006 120.05311952221756"
     class="css-1j8o68f">
  <defs id="SvgjsDefs1200"></defs>
  <g id="SvgjsG1201" featurekey="1p4tPl-0"
     transform="matrix(0.1446451765261542,0,0,0.1446451765261542,102.44367693942614,-47.181426447022545)"
     fill="#646ecb">
    <path xmlns="http://www.w3.org/2000/svg"
          d="M784.5,326.3C721.7,325,659,335.1,596.2,349c-62.7,13.9-125.5,31.6-188.2,45.5c-62.7,13.9-125.5,24-188.2,22.8c0,0,0,0,0,0  C157,416,94.2,403.4,31.5,371.8c0,79.8,0,159.6,0,239.4c62.7,31.6,125.5,44.2,188.2,45.5c0,0,0,0,0,0c62.7,1.3,125.5-8.8,188.2-22.8  c62.7-13.9,125.5-31.6,188.2-45.5c62.7-13.9,125.5-24,188.2-22.8c62.7,1.3,125.5,13.9,188.2,45.5c0-79.8,0-159.6,0-239.4  C910,340.2,847.2,327.5,784.5,326.3z M160.9,422.1c0-2.7,2.6-4.5,5.8-4c3.3,0.4,6.6,0.8,9.9,1.2c3.2,0.4,5.8,2.8,5.8,5.4V439  c0,2.7-2.6,4.6-5.8,4.2c-3.3-0.4-6.6-0.8-9.9-1.2c-3.2-0.4-5.8-3-5.8-5.6V422.1z M130,416.4c0-2.7,2.6-4.3,5.8-3.6  c3.3,0.7,6.6,1.3,9.9,1.9c3.2,0.6,5.8,3.2,5.8,5.9V435c0,2.7-2.6,4.4-5.8,3.8c-3.3-0.6-6.6-1.2-9.9-1.9c-3.2-0.7-5.8-3.4-5.8-6.1  V416.4z M99,408.3c0-2.7,2.6-4,5.8-3.1c3.3,0.9,6.6,1.8,9.9,2.7c3.2,0.8,5.8,3.6,5.8,6.3v14.4c0,2.7-2.6,4.2-5.8,3.4  c-3.3-0.9-6.6-1.8-9.9-2.7c-3.2-0.9-5.8-3.9-5.8-6.6V408.3z M68.1,397.6c0-2.7,2.6-3.8,5.8-2.6c3.3,1.2,6.6,2.4,9.9,3.6  c3.2,1.1,5.8,4.1,5.8,6.8v14.4c0,2.7-2.6,4-5.8,2.9c-3.3-1.1-6.6-2.3-9.9-3.6c-3.2-1.2-5.8-4.4-5.8-7.1V397.6z M37.1,384.1  c0-2.7,2.6-3.6,5.8-2.1c3.3,1.5,6.6,3,9.9,4.5c3.2,1.4,5.8,4.7,5.8,7.3v14.4c0,2.7-2.6,3.7-5.8,2.3c-3.3-1.4-6.6-2.9-9.9-4.5  c-3.2-1.5-5.8-5-5.8-7.6V384.1z M58.7,614.8c0,2.7-2.6,3.7-5.8,2.3c-3.3-1.4-6.6-2.9-9.9-4.5c-3.2-1.5-5.8-5-5.8-7.6v-14.4  c0-2.7,2.6-3.6,5.8-2.1c3.3,1.5,6.6,3,9.9,4.5c3.2,1.4,5.8,4.7,5.8,7.3V614.8z M89.7,626.4c0,2.7-2.6,4-5.8,2.9  c-3.3-1.1-6.6-2.3-9.9-3.6c-3.2-1.2-5.8-4.4-5.8-7.1v-14.4c0-2.7,2.6-3.8,5.8-2.6c3.3,1.2,6.6,2.4,9.9,3.6c3.2,1.1,5.8,4.1,5.8,6.8  V626.4z M120.6,635.2c0,2.7-2.6,4.2-5.8,3.4c-3.3-0.9-6.6-1.8-9.9-2.7c-3.2-0.9-5.8-3.9-5.8-6.6V615c0-2.7,2.6-4,5.8-3.1  c3.3,0.9,6.6,1.8,9.9,2.7c3.2,0.8,5.8,3.6,5.8,6.3C120.6,625.7,120.6,630.4,120.6,635.2z M151.6,641.6c0,2.7-2.6,4.4-5.8,3.8  c-3.3-0.6-6.6-1.2-9.9-1.9c-3.2-0.7-5.8-3.4-5.8-6.1c0-4.8,0-9.6,0-14.4c0-2.7,2.6-4.3,5.8-3.6c3.3,0.7,6.6,1.3,9.9,1.9  c3.2,0.6,5.8,3.2,5.8,5.9V641.6z M182.5,645.7c0,2.7-2.6,4.6-5.8,4.2c-3.3-0.4-6.6-0.8-9.9-1.2c-3.2-0.4-5.8-3-5.8-5.6v-14.4  c0-2.7,2.6-4.5,5.8-4c3.3,0.4,6.6,0.8,9.9,1.2c3.2,0.4,5.8,2.8,5.8,5.4C182.5,636.1,182.5,640.9,182.5,645.7z M188.9,619.8  c-42.2-3.5-84.3-12.7-126.5-29.9c-7-2.8-12.6-10.1-12.6-15.8c0-49.3,0-98.6,0-147.9c0-5.8,5.6-7.9,12.6-5  c42.2,17.2,84.3,26.4,126.5,29.9c7,0.6,12.6,5.5,12.6,11.3c0,49.3,0,98.6,0,147.9C201.5,616,195.8,620.4,188.9,619.8z M213.5,647.6  c0,2.7-2.6,4.8-5.8,4.6c-3.3-0.1-6.6-0.3-9.9-0.5c-3.2-0.2-5.8-2.6-5.8-5.2v-14.4c0-2.7,2.6-4.6,5.8-4.4c3.3,0.2,6.6,0.4,9.9,0.5  c3.2,0.1,5.8,2.4,5.8,5.1C213.5,638.1,213.5,642.8,213.5,647.6z M213.5,441c0,2.7-2.6,4.8-5.8,4.6c-3.3-0.1-6.6-0.3-9.9-0.5  c-3.2-0.2-5.8-2.6-5.8-5.2c0-4.8,0-9.6,0-14.4c0-2.7,2.6-4.6,5.8-4.4c3.3,0.2,6.6,0.4,9.9,0.5c3.2,0.1,5.8,2.4,5.8,5.1V441z   M349.2,415.7c0-2.7,2.6-5.3,5.8-5.9c3.3-0.6,6.6-1.2,9.9-1.8c3.2-0.6,5.8,1.1,5.8,3.7v14.4c0,2.7-2.6,5.3-5.8,5.9  c-3.3,0.6-6.6,1.2-9.9,1.8c-3.2,0.6-5.8-1.1-5.8-3.8V415.7z M318.2,420.5c0-2.7,2.6-5.2,5.8-5.7c3.3-0.5,6.6-1,9.9-1.5  c3.2-0.5,5.8,1.2,5.8,3.9v14.4c0,2.7-2.6,5.3-5.8,5.8c-3.3,0.5-6.6,1-9.9,1.5c-3.2,0.5-5.8-1.3-5.8-4V420.5z M287.3,424.1  c0-2.7,2.6-5.1,5.8-5.4c3.3-0.3,6.6-0.7,9.9-1.1c3.2-0.4,5.8,1.5,5.8,4.1c0,4.8,0,9.6,0,14.4c0,2.7-2.6,5.2-5.8,5.5  c-3.3,0.4-6.6,0.7-9.9,1.1c-3.2,0.3-5.8-1.6-5.8-4.3V424.1z M256.3,426.3c0-2.7,2.6-5,5.8-5.1c3.3-0.2,6.6-0.4,9.9-0.6  c3.2-0.2,5.8,1.7,5.8,4.4v14.4c0,2.7-2.6,5-5.8,5.3c-3.3,0.2-6.6,0.4-9.9,0.6c-3.2,0.2-5.8-1.9-5.8-4.5V426.3z M225.4,426.9  c0-2.7,2.6-4.8,5.8-4.8c3.3,0,6.6,0,9.9-0.1c3.2-0.1,5.8,2,5.8,4.7c0,4.8,0,9.6,0,14.4c0,2.7-2.6,4.9-5.8,5  c-3.3,0.1-6.6,0.1-9.9,0.1c-3.2,0-5.8-2.2-5.8-4.9V426.9z M247,647.6c0,2.7-2.6,4.9-5.8,5c-3.3,0.1-6.6,0.1-9.9,0.1  c-3.2,0-5.8-2.2-5.8-4.9v-14.4c0-2.7,2.6-4.8,5.8-4.8c3.3,0,6.6,0,9.9-0.1c3.2-0.1,5.8,2,5.8,4.7V647.6z M277.9,645.9  c0,2.7-2.6,5-5.8,5.3c-3.3,0.2-6.6,0.4-9.9,0.6c-3.2,0.2-5.8-1.9-5.8-4.5v-14.4c0-2.7,2.6-5,5.8-5.1c3.3-0.2,6.6-0.4,9.9-0.6  c3.2-0.2,5.8,1.7,5.8,4.4C277.9,636.4,277.9,641.1,277.9,645.9z M308.9,642.7c0,2.7-2.6,5.2-5.8,5.5c-3.3,0.4-6.6,0.7-9.9,1.1  c-3.2,0.3-5.8-1.6-5.8-4.3v-14.4c0-2.7,2.6-5.1,5.8-5.4c3.3-0.3,6.6-0.7,9.9-1.1c3.2-0.4,5.8,1.5,5.8,4.1  C308.9,633.2,308.9,638,308.9,642.7z M339.8,638.3c0,2.7-2.6,5.3-5.8,5.8c-3.3,0.5-6.6,1-9.9,1.5c-3.2,0.5-5.8-1.3-5.8-4v-14.4  c0-2.7,2.6-5.2,5.8-5.7c3.3-0.5,6.6-1,9.9-1.5c3.2-0.5,5.8,1.2,5.8,3.9V638.3z M370.8,632.8c0,2.7-2.6,5.3-5.8,5.9  c-3.3,0.6-6.6,1.2-9.9,1.8c-3.2,0.6-5.8-1.1-5.8-3.8v-14.4c0-2.7,2.6-5.3,5.8-5.9c3.3-0.6,6.6-1.2,9.9-1.8c3.2-0.6,5.8,1.1,5.8,3.7  C370.8,623.2,370.8,628,370.8,632.8z M250.6,621.1c-7,0.3-12.6-4.4-12.6-10.1V463c0-5.8,5.6-10.5,12.6-10.7  c42.2-1.5,84.3-7.6,126.5-16c7-1.4,12.6,2.1,12.6,7.9c0,49.3,0,98.6,0,147.9c0,5.8-5.6,11.6-12.6,13  C334.9,613.5,292.8,619.6,250.6,621.1z M401.7,626.4c0,2.7-2.6,5.4-5.8,6.1c-3.3,0.7-6.6,1.4-9.9,2.1c-3.2,0.7-5.8-1-5.8-3.6  c0-4.8,0-9.6,0-14.4c0-2.7,2.6-5.4,5.8-6c3.3-0.7,6.6-1.4,9.9-2.1c3.2-0.7,5.8,0.9,5.8,3.6V626.4z M401.7,419.8  c0,2.7-2.6,5.4-5.8,6.1c-3.3,0.7-6.6,1.4-9.9,2.1c-3.2,0.7-5.8-1-5.8-3.6V410c0-2.7,2.6-5.4,5.8-6c3.3-0.7,6.6-1.4,9.9-2.1  c3.2-0.7,5.8,0.9,5.8,3.6V419.8z M537.4,372.5c0-2.7,2.6-5.5,5.8-6.3c3.3-0.8,6.6-1.6,9.9-2.4c3.2-0.8,5.8,0.8,5.8,3.4v14.4  c0,2.7-2.6,5.5-5.8,6.2c-3.3,0.8-6.6,1.6-9.9,2.4c-3.2,0.8-5.8-0.7-5.8-3.4V372.5z M506.5,380.2c0-2.7,2.6-5.5,5.8-6.3  c3.3-0.8,6.6-1.7,9.9-2.5c3.2-0.8,5.8,0.7,5.8,3.4c0,4.8,0,9.6,0,14.4c0,2.7-2.6,5.5-5.8,6.3c-3.3,0.8-6.6,1.7-9.9,2.5  c-3.2,0.8-5.8-0.7-5.8-3.4V380.2z M475.5,388c0-2.7,2.6-5.5,5.8-6.3c3.3-0.8,6.6-1.7,9.9-2.5c3.2-0.8,5.8,0.7,5.8,3.4v14.4  c0,2.7-2.6,5.5-5.8,6.3c-3.3,0.8-6.6,1.7-9.9,2.5c-3.2,0.8-5.8-0.7-5.8-3.4V388z M444.6,395.6c0-2.7,2.6-5.5,5.8-6.2  c3.3-0.8,6.6-1.6,9.9-2.4c3.2-0.8,5.8,0.7,5.8,3.4v14.4c0,2.7-2.6,5.5-5.8,6.3c-3.3,0.8-6.6,1.6-9.9,2.4c-3.2,0.8-5.8-0.8-5.8-3.4  V395.6z M413.6,402.8c0-2.7,2.6-5.4,5.8-6.2c3.3-0.8,6.6-1.5,9.9-2.3c3.2-0.8,5.8,0.8,5.8,3.5v14.4c0,2.7-2.6,5.5-5.8,6.2  c-3.3,0.8-6.6,1.5-9.9,2.3c-3.2,0.7-5.8-0.8-5.8-3.5V402.8z M435.2,618.8c0,2.7-2.6,5.5-5.8,6.2c-3.3,0.8-6.6,1.5-9.9,2.3  c-3.2,0.7-5.8-0.8-5.8-3.5c0-4.8,0-9.6,0-14.4c0-2.7,2.6-5.4,5.8-6.2c3.3-0.8,6.6-1.5,9.9-2.3c3.2-0.8,5.8,0.8,5.8,3.5V618.8z   M466.2,611.3c0,2.7-2.6,5.5-5.8,6.3c-3.3,0.8-6.6,1.6-9.9,2.4c-3.2,0.8-5.8-0.8-5.8-3.4v-14.4c0-2.7,2.6-5.5,5.8-6.2  c3.3-0.8,6.6-1.6,9.9-2.4c3.2-0.8,5.8,0.7,5.8,3.4V611.3z M497.1,603.5c0,2.7-2.6,5.5-5.8,6.3c-3.3,0.8-6.6,1.7-9.9,2.5  c-3.2,0.8-5.8-0.7-5.8-3.4v-14.4c0-2.7,2.6-5.5,5.8-6.3c3.3-0.8,6.6-1.7,9.9-2.5c3.2-0.8,5.8,0.7,5.8,3.4V603.5z M528.1,595.8  c0,2.7-2.6,5.5-5.8,6.3c-3.3,0.8-6.6,1.7-9.9,2.5c-3.2,0.8-5.8-0.7-5.8-3.4v-14.4c0-2.7,2.6-5.5,5.8-6.3c3.3-0.8,6.6-1.7,9.9-2.5  c3.2-0.8,5.8,0.7,5.8,3.4C528.1,586.2,528.1,591,528.1,595.8z M559,588.2c0,2.7-2.6,5.5-5.8,6.2c-3.3,0.8-6.6,1.6-9.9,2.4  c-3.2,0.8-5.8-0.7-5.8-3.4c0-4.8,0-9.6,0-14.4c0-2.7,2.6-5.5,5.8-6.3c3.3-0.8,6.6-1.6,9.9-2.4c3.2-0.8,5.8,0.8,5.8,3.4  C559,578.6,559,583.4,559,588.2z M438.9,591.5c-7,1.7-12.6-1.7-12.6-7.5c0-49.3,0-98.6,0-147.9c0-5.8,5.6-11.7,12.6-13.4  c42.2-10,84.3-21.2,126.5-31.3c7-1.7,12.6,1.7,12.6,7.5c0,49.3,0,98.6,0,147.9c0,5.8-5.6,11.7-12.6,13.4  C523.2,570.3,481,581.5,438.9,591.5z M590,580.9c0,2.7-2.6,5.4-5.8,6.2c-3.3,0.8-6.6,1.5-9.9,2.3c-3.2,0.8-5.8-0.8-5.8-3.5v-14.4  c0-2.7,2.6-5.5,5.8-6.2c3.3-0.8,6.6-1.5,9.9-2.3c3.2-0.7,5.8,0.8,5.8,3.5V580.9z M590,374.3c0,2.7-2.6,5.4-5.8,6.2  c-3.3,0.8-6.6,1.5-9.9,2.3c-3.2,0.8-5.8-0.8-5.8-3.5v-14.4c0-2.7,2.6-5.5,5.8-6.2c3.3-0.8,6.6-1.5,9.9-2.3c3.2-0.7,5.8,0.8,5.8,3.5  V374.3z M725.7,337.7c0-2.7,2.6-5.1,5.8-5.3c3.3-0.2,6.6-0.5,9.9-0.6c3.2-0.2,5.8,1.9,5.8,4.5c0,4.8,0,9.6,0,14.4  c0,2.7-2.6,5-5.8,5.1c-3.3,0.2-6.6,0.4-9.9,0.6c-3.2,0.2-5.8-1.7-5.8-4.4C725.7,347.3,725.7,342.5,725.7,337.7z M694.7,340.9  c0-2.7,2.6-5.2,5.8-5.5c3.3-0.4,6.6-0.8,9.9-1.1c3.2-0.3,5.8,1.6,5.8,4.3v14.4c0,2.7-2.6,5.1-5.8,5.4c-3.3,0.3-6.6,0.7-9.9,1.1  c-3.2,0.4-5.8-1.5-5.8-4.1V340.9z M663.8,345.4c0-2.7,2.6-5.3,5.8-5.8c3.3-0.5,6.6-1,9.9-1.5c3.2-0.5,5.8,1.3,5.8,4v14.4  c0,2.7-2.6,5.2-5.8,5.7c-3.3,0.5-6.6,1-9.9,1.5c-3.2,0.5-5.8-1.2-5.8-3.9V345.4z M632.8,350.9c0-2.7,2.6-5.3,5.8-6  c3.3-0.6,6.6-1.2,9.9-1.8c3.2-0.6,5.8,1.1,5.8,3.8v14.4c0,2.7-2.6,5.3-5.8,5.9c-3.3,0.6-6.6,1.2-9.9,1.8c-3.2,0.6-5.8-1-5.8-3.7  V350.9z M601.9,357.3c0-2.7,2.6-5.4,5.8-6.1c3.3-0.7,6.6-1.4,9.9-2.1c3.2-0.7,5.8,1,5.8,3.6v14.4c0,2.7-2.6,5.4-5.8,6  c-3.3,0.7-6.6,1.4-9.9,2.1c-3.2,0.7-5.8-0.9-5.8-3.6C601.9,366.9,601.9,362.1,601.9,357.3z M623.5,573.8c0,2.7-2.6,5.4-5.8,6  c-3.3,0.7-6.6,1.4-9.9,2.1c-3.2,0.7-5.8-0.9-5.8-3.6c0-4.8,0-9.6,0-14.4c0-2.7,2.6-5.4,5.8-6.1c3.3-0.7,6.6-1.4,9.9-2.1  c3.2-0.7,5.8,1,5.8,3.6C623.5,564.2,623.5,569,623.5,573.8z M654.4,568c0,2.7-2.6,5.3-5.8,5.9c-3.3,0.6-6.6,1.2-9.9,1.8  c-3.2,0.6-5.8-1-5.8-3.7v-14.4c0-2.7,2.6-5.3,5.8-6c3.3-0.6,6.6-1.2,9.9-1.8c3.2-0.6,5.8,1.1,5.8,3.8  C654.4,558.4,654.4,563.2,654.4,568z M685.4,563.1c0,2.7-2.6,5.2-5.8,5.7c-3.3,0.5-6.6,1-9.9,1.5c-3.2,0.5-5.8-1.2-5.8-3.9V552  c0-2.7,2.6-5.3,5.8-5.8c3.3-0.5,6.6-1,9.9-1.5c3.2-0.5,5.8,1.3,5.8,4V563.1z M716.3,559.5c0,2.7-2.6,5.1-5.8,5.4  c-3.3,0.3-6.6,0.7-9.9,1.1c-3.2,0.4-5.8-1.5-5.8-4.1v-14.4c0-2.7,2.6-5.2,5.8-5.5c3.3-0.4,6.6-0.8,9.9-1.1c3.2-0.3,5.8,1.6,5.8,4.3  C716.3,550,716.3,554.7,716.3,559.5z M747.3,557.3c0,2.7-2.6,5-5.8,5.1c-3.3,0.2-6.6,0.4-9.9,0.6c-3.2,0.2-5.8-1.7-5.8-4.4  c0-4.8,0-9.6,0-14.4c0-2.7,2.6-5.1,5.8-5.3c3.3-0.2,6.6-0.5,9.9-0.6c3.2-0.2,5.8,1.9,5.8,4.5C747.3,547.7,747.3,552.5,747.3,557.3z   M627.1,546.6c-7,1.4-12.6-2.1-12.6-7.9V390.8c0-5.8,5.6-11.6,12.6-13c42.2-8.4,84.3-14.5,126.5-16c7-0.3,12.6,4.4,12.6,10.1  c0,49.3,0,98.6,0,147.9c0,5.8-5.6,10.5-12.6,10.7C711.4,532.1,669.3,538.2,627.1,546.6z M778.2,556.7c0,2.7-2.6,4.8-5.8,4.8  c-3.3,0-6.6,0-9.9,0.1c-3.2,0.1-5.8-2-5.8-4.7c0-4.8,0-9.6,0-14.4c0-2.7,2.6-4.9,5.8-5c3.3-0.1,6.6-0.1,9.9-0.1  c3.2,0,5.8,2.2,5.8,4.9C778.2,547.1,778.2,551.9,778.2,556.7z M778.2,350.1c0,2.7-2.6,4.8-5.8,4.8c-3.3,0-6.6,0-9.9,0.1  c-3.2,0.1-5.8-2-5.8-4.7c0-4.8,0-9.6,0-14.4c0-2.7,2.6-4.9,5.8-5c3.3-0.1,6.6-0.1,9.9-0.1c3.2,0,5.8,2.2,5.8,4.9  C778.2,340.5,778.2,345.3,778.2,350.1z M913.9,357c0-2.7,2.6-4,5.8-2.9c3.3,1.1,6.6,2.3,9.9,3.5c3.2,1.2,5.8,4.4,5.8,7.1  c0,4.8,0,9.6,0,14.4c0,2.7-2.6,3.8-5.8,2.6c-3.3-1.2-6.6-2.4-9.9-3.5c-3.2-1.1-5.8-4.1-5.8-6.8V357z M883,348.2  c0-2.7,2.6-4.2,5.8-3.4c3.3,0.9,6.6,1.7,9.9,2.7c3.2,0.9,5.8,3.9,5.8,6.5c0,4.8,0,9.6,0,14.4c0,2.7-2.6,4-5.8,3.1  c-3.3-0.9-6.6-1.8-9.9-2.7c-3.2-0.8-5.8-3.6-5.8-6.3C883,357.8,883,353,883,348.2z M852,341.9c0-2.7,2.6-4.4,5.8-3.8  c3.3,0.6,6.6,1.2,9.9,1.9c3.2,0.7,5.8,3.4,5.8,6.1v14.4c0,2.7-2.6,4.3-5.8,3.6c-3.3-0.7-6.6-1.3-9.9-1.9c-3.2-0.6-5.8-3.2-5.8-5.8  C852,351.5,852,346.7,852,341.9z M821.1,337.9c0-2.7,2.6-4.6,5.8-4.2c3.3,0.4,6.6,0.8,9.9,1.2c3.2,0.4,5.8,3,5.8,5.6v14.4  c0,2.7-2.6,4.5-5.8,4c-3.3-0.4-6.6-0.8-9.9-1.2c-3.2-0.3-5.8-2.8-5.8-5.4V337.9z M790.1,335.9c0-2.7,2.6-4.8,5.8-4.6  c3.3,0.1,6.6,0.3,9.9,0.5c3.2,0.2,5.8,2.6,5.8,5.2v14.4c0,2.7-2.6,4.6-5.8,4.4c-3.3-0.2-6.6-0.4-9.9-0.5c-3.2-0.1-5.8-2.4-5.8-5.1  V335.9z M811.7,558.1c0,2.7-2.6,4.6-5.8,4.4c-3.3-0.2-6.6-0.4-9.9-0.5c-3.2-0.1-5.8-2.4-5.8-5.1v-14.4c0-2.7,2.6-4.8,5.8-4.6  c3.3,0.1,6.6,0.3,9.9,0.5c3.2,0.2,5.8,2.6,5.8,5.2V558.1z M842.7,561.4c0,2.7-2.6,4.5-5.8,4c-3.3-0.4-6.6-0.8-9.9-1.2  c-3.2-0.3-5.8-2.8-5.8-5.4c0-4.8,0-9.6,0-14.4c0-2.7,2.6-4.6,5.8-4.2c3.3,0.4,6.6,0.8,9.9,1.2c3.2,0.4,5.8,3,5.8,5.6V561.4z   M873.6,567c0,2.7-2.6,4.3-5.8,3.6c-3.3-0.7-6.6-1.3-9.9-1.9c-3.2-0.6-5.8-3.2-5.8-5.8c0-4.8,0-9.6,0-14.4c0-2.7,2.6-4.4,5.8-3.8  c3.3,0.6,6.6,1.2,9.9,1.9c3.2,0.7,5.8,3.4,5.8,6.1C873.6,557.5,873.6,562.3,873.6,567z M904.6,575.1c0,2.7-2.6,4-5.8,3.1  c-3.3-0.9-6.6-1.8-9.9-2.7c-3.2-0.8-5.8-3.6-5.8-6.3c0-4.8,0-9.6,0-14.4c0-2.7,2.6-4.2,5.8-3.4c3.3,0.9,6.6,1.7,9.9,2.7  c3.2,0.9,5.8,3.9,5.8,6.5C904.6,565.5,904.6,570.3,904.6,575.1z M935.5,585.7c0,2.7-2.6,3.8-5.8,2.6c-3.3-1.2-6.6-2.4-9.9-3.5  c-3.2-1.1-5.8-4.1-5.8-6.8v-14.4c0-2.7,2.6-4,5.8-2.9c3.3,1.1,6.6,2.3,9.9,3.5c3.2,1.2,5.8,4.4,5.8,7.1V585.7z M815.3,531.9  c-7-0.6-12.6-5.5-12.6-11.3c0-49.3,0-98.6,0-147.9c0-5.8,5.6-10.1,12.6-9.6c42.2,3.5,84.3,12.7,126.5,29.9  c7,2.8,12.6,10.1,12.6,15.8c0,49.3,0,98.6,0,147.9c0,5.8-5.6,7.9-12.6,5C899.7,544.6,857.5,535.4,815.3,531.9z M966.5,599.2  c0,2.7-2.6,3.6-5.8,2.1c-3.3-1.5-6.6-3-9.9-4.5c-3.2-1.4-5.8-4.7-5.8-7.3v-14.4c0-2.7,2.6-3.8,5.8-2.3c3.3,1.4,6.6,2.9,9.9,4.5  c3.2,1.5,5.8,4.9,5.8,7.6V599.2z M966.5,392.6c0,2.7-2.6,3.6-5.8,2.1c-3.3-1.5-6.6-3-9.9-4.5c-3.2-1.4-5.8-4.7-5.8-7.3v-14.4  c0-2.7,2.6-3.8,5.8-2.3c3.3,1.4,6.6,2.9,9.9,4.5c3.2,1.5,5.8,4.9,5.8,7.6C966.5,383,966.5,387.8,966.5,392.6z"></path>
  </g>
  <g id="SvgjsG1202" featurekey="dYASrj-0"
     transform="matrix(3.575076553062984,0,0,3.575076553062984,-2.1450455908919217,47.55056286656064)" fill="#111111">
    <path
      d="M7.88 20.28 c-4.22 0 -7.28 -3.16 -7.28 -7.28 s3.06 -7.28 7.28 -7.28 c3.2 0 5.92 2 6.74 4.92 c0.08 0.34 -0.1 0.56 -0.44 0.56 l-2.36 0 c-0.28 0 -0.44 -0.14 -0.56 -0.4 c-0.56 -1.22 -1.86 -1.96 -3.38 -1.96 c-2.48 0 -4.08 1.66 -4.08 4.16 s1.6 4.16 4.08 4.16 c1.52 0 2.82 -0.74 3.38 -1.96 c0.12 -0.26 0.28 -0.4 0.56 -0.4 l2.36 0 c0.34 0 0.52 0.2 0.44 0.52 c-0.78 2.92 -3.52 4.96 -6.74 4.96 z M16.14 6.5 c0 -0.32 0.18 -0.5 0.5 -0.5 l2.2 0 c0.32 0 0.5 0.18 0.5 0.5 l0 13 c0 0.32 -0.18 0.5 -0.5 0.5 l-2.2 0 c-0.32 0 -0.5 -0.18 -0.5 -0.5 l0 -13 z M29.14 6.5 c0 -0.32 0.18 -0.5 0.5 -0.5 l2.2 0 c0.32 0 0.5 0.18 0.5 0.5 l0 13 c0 0.32 -0.18 0.5 -0.5 0.5 l-1.5 0 c-0.26 0 -0.48 -0.1 -0.62 -0.32 l-4.78 -7.48 l0 7.3 c0 0.32 -0.18 0.5 -0.5 0.5 l-2.2 0 c-0.32 0 -0.5 -0.18 -0.5 -0.5 l0 -13 c0 -0.32 0.18 -0.5 0.5 -0.5 l1.5 0 c0.26 0 0.48 0.1 0.62 0.32 l4.78 7.48 l0 -7.3 z M42.64 16.92 c0.32 0 0.5 0.18 0.5 0.5 l0 2.08 c0 0.32 -0.18 0.5 -0.5 0.5 l-6.9 0 l-0.5 0 c-0.32 0 -0.5 -0.18 -0.5 -0.5 l0 -13 c0 -0.32 0.18 -0.5 0.5 -0.5 l2.7 0 l4.6 0 c0.32 0 0.5 0.18 0.5 0.5 l0 2.08 c0 0.32 -0.18 0.5 -0.5 0.5 l-4.6 0 l0 2.34 l4.1 0 c0.32 0 0.5 0.18 0.5 0.5 l0 2 c0 0.32 -0.18 0.5 -0.5 0.5 l-4.1 0 l0 2.5 l4.7 0 z M58.44 6 c0.32 0 0.5 0.18 0.5 0.5 l0 13 c0 0.32 -0.18 0.5 -0.5 0.5 l-2.2 0 c-0.32 0 -0.5 -0.18 -0.5 -0.5 l0 -8.0828 l-2.54 6.0228 c-0.1 0.26 -0.3 0.38 -0.58 0.38 l-1.36 0 c-0.28 0 -0.48 -0.12 -0.58 -0.38 l-2.54 -6.0228 l0 8.0828 c0 0.32 -0.18 0.5 -0.5 0.5 l-2.2 0 c-0.32 0 -0.5 -0.18 -0.5 -0.5 l0 -13 c0 -0.32 0.18 -0.5 0.5 -0.5 l2.2 0 l0.48 0 c0.28 0 0.48 0.12 0.58 0.38 l3.24 7.7 l3.24 -7.7 c0.1 -0.26 0.3 -0.38 0.58 -0.38 l1.62 0 l1.06 0 z M73.16 19.44 c0.12 0.36 -0.06002 0.56 -0.42002 0.56 l-2.46 0 c-0.28 0 -0.48 -0.12 -0.56 -0.42 l-0.5262 -1.78 l-4.9076 0 l-0.5262 1.78 c-0.08 0.3 -0.28 0.42 -0.56 0.42 l-2.46 0 c-0.36 0 -0.54 -0.2 -0.42 -0.56 l4.24 -13.02 c0.08 -0.28 0.3 -0.42 0.58 -0.42 l3.2 0 c0.28 0 0.5 0.14 0.58 0.42 z M65.1732 14.8 l3.1336 0 l-1.5668 -5.3 z M82.64 6 c0.32 0 0.5 0.18 0.5 0.5 l0 2.08 c0 0.32 -0.18 0.5 -0.5 0.5 l-2.7 0 l0 10.42 c0 0.32 -0.18 0.5 -0.5 0.5 l-2.2 0 c-0.32 0 -0.5 -0.18 -0.5 -0.5 l0 -10.42 l-2.7 0 c-0.32 0 -0.5 -0.18 -0.5 -0.5 l0 -2.08 c0 -0.32 0.18 -0.5 0.5 -0.5 l5.9 0 l2.7 0 z M91.22 20.28 c-4.02 0 -7.28 -3.16 -7.28 -7.28 s3.26 -7.28 7.28 -7.28 s7.28 3.16 7.28 7.28 s-3.26 7.28 -7.28 7.28 z M91.22 17.16 c2.28 0 4.08 -1.66 4.08 -4.16 s-1.8 -4.16 -4.08 -4.16 s-4.08 1.66 -4.08 4.16 s1.8 4.16 4.08 4.16 z"></path>
  </g>
</svg>
